<svg xmlns="http://www.w3.org/2000/svg" width="97" height="97" viewBox="0 0 97 97">
    <g fill="none" fill-rule="evenodd">
        <path fill="#ECEFF1" d="M0 48.5C0 21.714 21.714 0 48.5 0S97 21.714 97 48.5 75.286 97 48.5 97 0 75.286 0 48.5"/>
        <path fill="#2F3E46" d="M32.249 34.293h-9.337a.851.851 0 0 1-.848-.854c0-.471.38-.853.848-.853h9.337c.469 0 .849.382.849.853s-.38.854-.85.854M73.968 34.423h-33.95a.851.851 0 0 1-.85-.854c0-.471.38-.853.85-.853h33.95c.47 0 .85.382.85.853 0 .472-.38.854-.85.854"/>
        <path fill="#E1313C" d="M35.746 30.879a2.554 2.554 0 0 0-2.547 2.56c0 1.414 1.14 2.56 2.547 2.56a2.554 2.554 0 0 0 2.546-2.56c0-1.414-1.14-2.56-2.546-2.56m0 6.828c-2.344 0-4.244-1.911-4.244-4.268 0-2.357 1.9-4.267 4.244-4.267s4.244 1.91 4.244 4.267-1.9 4.268-4.244 4.268"/>
        <path fill="#2F3E46" d="M23.042 51.493a.851.851 0 0 1-.849-.854c0-.47.38-.853.849-.853h34.8c.468 0 .848.382.848.853 0 .472-.38.854-.848.854h-34.8zM73.968 51.493h-8.487a.851.851 0 0 1-.85-.854c0-.47.38-.853.85-.853h8.487c.47 0 .85.382.85.853 0 .472-.38.854-.85.854"/>
        <path fill="#E1313C" d="M61.21 47.949a2.554 2.554 0 0 0-2.547 2.56c0 1.414 1.14 2.56 2.546 2.56a2.554 2.554 0 0 0 2.546-2.56c0-1.414-1.14-2.56-2.546-2.56m0 6.828c-2.344 0-4.244-1.91-4.244-4.268 0-2.357 1.9-4.267 4.244-4.267s4.244 1.91 4.244 4.267-1.9 4.268-4.244 4.268"/>
        <path fill="#2F3E46" d="M40.866 68.563H23.042a.851.851 0 0 1-.849-.853c0-.472.38-.854.849-.854h17.824c.469 0 .849.382.849.854 0 .471-.38.853-.849.853M73.968 68.563H48.505a.851.851 0 0 1-.849-.853c0-.472.38-.854.85-.854h25.462c.47 0 .85.382.85.854 0 .471-.38.853-.85.853"/>
        <path fill="#E1313C" d="M44.234 65.02a2.554 2.554 0 0 0-2.547 2.56c0 1.414 1.14 2.56 2.547 2.56a2.554 2.554 0 0 0 2.546-2.56c0-1.414-1.14-2.56-2.546-2.56m0 6.827c-2.344 0-4.244-1.91-4.244-4.267s1.9-4.268 4.244-4.268c2.343 0 4.244 1.91 4.244 4.268 0 2.356-1.9 4.267-4.244 4.267"/>
    </g>
</svg>
